<?xml version="1.0" encoding="UTF-8" standalone="no"?><!-- Generator: Gravit.io --><svg xmlns="http://www.w3.org/2000/svg" xmlns:xlink="http://www.w3.org/1999/xlink" style="isolation:isolate" viewBox="0 0 500 500" width="500pt" height="500pt"><defs><clipPath id="_clipPath_1aLvkKu8ttRPd0KoUqcnVK5WXztEG4wy"><rect width="500" height="500"/></clipPath></defs><g clip-path="url(#_clipPath_1aLvkKu8ttRPd0KoUqcnVK5WXztEG4wy)"><path d=" M 96.25 45 L 403.75 45 C 432.036 45 455 67.964 455 96.25 L 455 403.75 C 455 432.036 432.036 455 403.75 455 L 96.25 455 C 67.964 455 45 432.036 45 403.75 L 45 96.25 C 45 67.964 67.964 45 96.25 45 Z  M 126.027 118.019 L 92.471 118.019 L 92.471 118.019 Q 89.242 118.019 86.855 115.703 L 86.855 115.703 L 86.855 115.703 Q 84.468 113.386 84.468 110.157 L 84.468 110.157 L 84.468 110.157 Q 84.468 106.928 86.855 104.541 L 86.855 104.541 L 86.855 104.541 Q 89.242 102.154 92.471 102.154 L 92.471 102.154 L 142.313 102.154 L 142.313 102.154 Q 145.542 102.154 147.859 104.541 L 147.859 104.541 L 147.859 104.541 Q 150.176 106.928 150.176 110.157 L 150.176 110.157 L 150.176 110.157 Q 150.176 118.16 144.279 123.354 L 144.279 123.354 L 121.534 143.993 L 121.534 143.993 Q 121.394 144.134 121.394 144.274 L 121.394 144.274 L 121.394 144.274 Q 121.394 144.414 121.534 144.414 L 121.534 144.414 L 123.78 144.414 L 123.78 144.414 Q 136.697 144.414 144.138 151.785 L 144.138 151.785 L 144.138 151.785 Q 151.58 159.156 151.58 172.354 L 151.58 172.354 L 151.58 172.354 Q 151.58 188.5 141.752 197.275 L 141.752 197.275 L 141.752 197.275 Q 131.924 206.05 113.672 206.05 L 113.672 206.05 L 113.672 206.05 Q 102.861 206.05 92.752 203.523 L 92.752 203.523 L 92.752 203.523 Q 89.382 202.68 87.276 199.732 L 87.276 199.732 L 87.276 199.732 Q 85.17 196.784 85.17 193.133 L 85.17 193.133 L 85.17 191.589 L 85.17 191.589 Q 85.17 188.781 87.487 187.166 L 87.487 187.166 L 87.487 187.166 Q 89.804 185.552 92.612 186.394 L 92.612 186.394 L 92.612 186.394 Q 103.984 190.185 112.829 190.185 L 112.829 190.185 L 112.829 190.185 Q 122.096 190.185 127.15 185.692 L 127.15 185.692 L 127.15 185.692 Q 132.204 181.199 132.204 172.635 L 132.204 172.635 L 132.204 172.635 Q 132.204 164.772 126.518 161.333 L 126.518 161.333 L 126.518 161.333 Q 120.832 157.893 106.511 157.893 L 106.511 157.893 L 104.967 157.893 L 104.967 157.893 Q 102.159 157.893 100.123 155.787 L 100.123 155.787 L 100.123 155.787 Q 98.087 153.681 98.087 150.873 L 98.087 150.873 L 98.087 150.873 Q 98.087 143.853 103.142 139.22 L 103.142 139.22 L 126.027 118.44 L 126.027 118.44 Q 126.167 118.3 126.167 118.16 L 126.167 118.16 L 126.167 118.16 Q 126.167 118.019 126.027 118.019 L 126.027 118.019 Z  M 241.716 130.655 L 241.716 130.655 L 241.716 130.655 Q 241.716 143.853 233.363 155.997 L 233.363 155.997 L 233.363 155.997 Q 225.009 168.142 201 188.219 L 201 188.219 L 201 188.219 Q 200.72 188.5 200.72 188.64 L 200.72 188.64 L 200.72 188.64 Q 200.72 188.781 200.86 188.781 L 200.86 188.781 L 233.994 188.781 L 233.994 188.781 Q 237.224 188.781 239.61 191.097 L 239.61 191.097 L 239.61 191.097 Q 241.997 193.414 241.997 196.643 L 241.997 196.643 L 241.997 196.643 Q 241.997 199.872 239.61 202.259 L 239.61 202.259 L 239.61 202.259 Q 237.224 204.646 233.994 204.646 L 233.994 204.646 L 182.468 204.646 L 182.468 204.646 Q 179.238 204.646 176.922 202.259 L 176.922 202.259 L 176.922 202.259 Q 174.605 199.872 174.605 196.643 L 174.605 196.643 L 174.605 196.643 Q 174.605 188.64 180.642 183.867 L 180.642 183.867 L 180.642 183.867 Q 204.932 164.492 213.215 153.681 L 213.215 153.681 L 213.215 153.681 Q 221.499 142.87 221.499 132.621 L 221.499 132.621 L 221.499 132.621 Q 221.499 117.036 204.791 117.036 L 204.791 117.036 L 204.791 117.036 Q 196.227 117.036 184.012 121.81 L 184.012 121.81 L 184.012 121.81 Q 181.344 122.933 179.028 121.389 L 179.028 121.389 L 179.028 121.389 Q 176.711 119.844 176.711 117.177 L 176.711 117.177 L 176.711 114.79 L 176.711 114.79 Q 176.711 111.14 178.747 108.121 L 178.747 108.121 L 178.747 108.121 Q 180.783 105.102 184.152 104.12 L 184.152 104.12 L 184.152 104.12 Q 196.086 100.75 207.599 100.75 L 207.599 100.75 L 207.599 100.75 Q 224.026 100.75 232.871 108.612 L 232.871 108.612 L 232.871 108.612 Q 241.716 116.475 241.716 130.655 Z  M 312.478 124.478 L 312.478 124.478 L 312.478 124.478 Q 307.704 116.054 297.876 116.054 L 297.876 116.054 L 297.876 116.054 Q 288.048 116.054 283.275 124.478 L 283.275 124.478 L 283.275 124.478 Q 278.501 132.902 278.501 153.4 L 278.501 153.4 L 278.501 153.4 Q 278.501 173.898 283.275 182.322 L 283.275 182.322 L 283.275 182.322 Q 288.048 190.746 297.876 190.746 L 297.876 190.746 L 297.876 190.746 Q 307.704 190.746 312.478 182.322 L 312.478 182.322 L 312.478 182.322 Q 317.252 173.898 317.252 153.4 L 317.252 153.4 L 317.252 153.4 Q 317.252 132.902 312.478 124.478 Z  M 327.431 193.554 L 327.431 193.554 L 327.431 193.554 Q 317.673 206.05 297.876 206.05 L 297.876 206.05 L 297.876 206.05 Q 278.08 206.05 268.322 193.554 L 268.322 193.554 L 268.322 193.554 Q 258.564 181.059 258.564 153.4 L 258.564 153.4 L 258.564 153.4 Q 258.564 125.741 268.322 113.246 L 268.322 113.246 L 268.322 113.246 Q 278.08 100.75 297.876 100.75 L 297.876 100.75 L 297.876 100.75 Q 317.673 100.75 327.431 113.246 L 327.431 113.246 L 327.431 113.246 Q 337.188 125.741 337.188 153.4 L 337.188 153.4 L 337.188 153.4 Q 337.188 181.059 327.431 193.554 Z  M 384.644 123.776 L 363.584 139.922 L 363.584 139.922 Q 361.618 141.466 359.442 140.343 L 359.442 140.343 L 359.442 140.343 Q 357.266 139.22 357.266 136.833 L 357.266 136.833 L 357.266 131.217 L 357.266 131.217 Q 357.266 123.354 363.584 118.44 L 363.584 118.44 L 378.606 106.928 L 378.606 106.928 Q 384.924 102.154 392.927 102.154 L 392.927 102.154 L 397.139 102.154 L 397.139 102.154 Q 400.368 102.154 402.685 104.541 L 402.685 104.541 L 402.685 104.541 Q 405.002 106.928 405.002 110.157 L 405.002 110.157 L 405.002 196.643 L 405.002 196.643 Q 405.002 199.872 402.685 202.259 L 402.685 202.259 L 402.685 202.259 Q 400.368 204.646 397.139 204.646 L 397.139 204.646 L 392.927 204.646 L 392.927 204.646 Q 389.698 204.646 387.311 202.259 L 387.311 202.259 L 387.311 202.259 Q 384.924 199.872 384.924 196.643 L 384.924 196.643 L 384.924 123.776 L 384.784 123.635 L 384.644 123.776 Z  M 132.766 317.678 L 132.766 317.678 L 132.766 317.678 Q 127.992 309.254 118.164 309.254 L 118.164 309.254 L 118.164 309.254 Q 108.336 309.254 103.563 317.678 L 103.563 317.678 L 103.563 317.678 Q 98.789 326.102 98.789 346.6 L 98.789 346.6 L 98.789 346.6 Q 98.789 367.098 103.563 375.522 L 103.563 375.522 L 103.563 375.522 Q 108.336 383.946 118.164 383.946 L 118.164 383.946 L 118.164 383.946 Q 127.992 383.946 132.766 375.522 L 132.766 375.522 L 132.766 375.522 Q 137.54 367.098 137.54 346.6 L 137.54 346.6 L 137.54 346.6 Q 137.54 326.102 132.766 317.678 Z  M 147.719 386.754 L 147.719 386.754 L 147.719 386.754 Q 137.961 399.25 118.164 399.25 L 118.164 399.25 L 118.164 399.25 Q 98.368 399.25 88.61 386.754 L 88.61 386.754 L 88.61 386.754 Q 78.852 374.259 78.852 346.6 L 78.852 346.6 L 78.852 346.6 Q 78.852 318.941 88.61 306.446 L 88.61 306.446 L 88.61 306.446 Q 98.368 293.95 118.164 293.95 L 118.164 293.95 L 118.164 293.95 Q 137.961 293.95 147.719 306.446 L 147.719 306.446 L 147.719 306.446 Q 157.476 318.941 157.476 346.6 L 157.476 346.6 L 157.476 346.6 Q 157.476 374.259 147.719 386.754 Z  M 204.932 316.976 L 183.872 333.122 L 183.872 333.122 Q 181.906 334.666 179.73 333.543 L 179.73 333.543 L 179.73 333.543 Q 177.554 332.42 177.554 330.033 L 177.554 330.033 L 177.554 324.417 L 177.554 324.417 Q 177.554 316.554 183.872 311.64 L 183.872 311.64 L 198.894 300.128 L 198.894 300.128 Q 205.212 295.354 213.215 295.354 L 213.215 295.354 L 217.427 295.354 L 217.427 295.354 Q 220.656 295.354 222.973 297.741 L 222.973 297.741 L 222.973 297.741 Q 225.29 300.128 225.29 303.357 L 225.29 303.357 L 225.29 389.843 L 225.29 389.843 Q 225.29 393.072 222.973 395.459 L 222.973 395.459 L 222.973 395.459 Q 220.656 397.846 217.427 397.846 L 217.427 397.846 L 213.215 397.846 L 213.215 397.846 Q 209.986 397.846 207.599 395.459 L 207.599 395.459 L 207.599 395.459 Q 205.212 393.072 205.212 389.843 L 205.212 389.843 L 205.212 316.976 L 205.072 316.835 L 204.932 316.976 Z  M 331.572 323.855 L 331.572 323.855 L 331.572 323.855 Q 331.572 337.053 323.219 349.197 L 323.219 349.197 L 323.219 349.197 Q 314.865 361.342 290.856 381.419 L 290.856 381.419 L 290.856 381.419 Q 290.576 381.7 290.576 381.84 L 290.576 381.84 L 290.576 381.84 Q 290.576 381.981 290.716 381.981 L 290.716 381.981 L 323.85 381.981 L 323.85 381.981 Q 327.08 381.981 329.466 384.297 L 329.466 384.297 L 329.466 384.297 Q 331.853 386.614 331.853 389.843 L 331.853 389.843 L 331.853 389.843 Q 331.853 393.072 329.466 395.459 L 329.466 395.459 L 329.466 395.459 Q 327.08 397.846 323.85 397.846 L 323.85 397.846 L 272.324 397.846 L 272.324 397.846 Q 269.094 397.846 266.778 395.459 L 266.778 395.459 L 266.778 395.459 Q 264.461 393.072 264.461 389.843 L 264.461 389.843 L 264.461 389.843 Q 264.461 381.84 270.498 377.067 L 270.498 377.067 L 270.498 377.067 Q 294.788 357.692 303.071 346.881 L 303.071 346.881 L 303.071 346.881 Q 311.355 336.07 311.355 325.821 L 311.355 325.821 L 311.355 325.821 Q 311.355 310.236 294.647 310.236 L 294.647 310.236 L 294.647 310.236 Q 286.083 310.236 273.868 315.01 L 273.868 315.01 L 273.868 315.01 Q 271.2 316.133 268.884 314.589 L 268.884 314.589 L 268.884 314.589 Q 266.567 313.044 266.567 310.377 L 266.567 310.377 L 266.567 307.99 L 266.567 307.99 Q 266.567 304.34 268.603 301.321 L 268.603 301.321 L 268.603 301.321 Q 270.639 298.302 274.008 297.32 L 274.008 297.32 L 274.008 297.32 Q 285.942 293.95 297.455 293.95 L 297.455 293.95 L 297.455 293.95 Q 313.882 293.95 322.727 301.812 L 322.727 301.812 L 322.727 301.812 Q 331.572 309.675 331.572 323.855 Z  M 395.595 311.219 L 362.039 311.219 L 362.039 311.219 Q 358.81 311.219 356.423 308.903 L 356.423 308.903 L 356.423 308.903 Q 354.036 306.586 354.036 303.357 L 354.036 303.357 L 354.036 303.357 Q 354.036 300.128 356.423 297.741 L 356.423 297.741 L 356.423 297.741 Q 358.81 295.354 362.039 295.354 L 362.039 295.354 L 411.881 295.354 L 411.881 295.354 Q 415.11 295.354 417.427 297.741 L 417.427 297.741 L 417.427 297.741 Q 419.744 300.128 419.744 303.357 L 419.744 303.357 L 419.744 303.357 Q 419.744 311.36 413.847 316.554 L 413.847 316.554 L 391.102 337.193 L 391.102 337.193 Q 390.962 337.334 390.962 337.474 L 390.962 337.474 L 390.962 337.474 Q 390.962 337.614 391.102 337.614 L 391.102 337.614 L 393.348 337.614 L 393.348 337.614 Q 406.265 337.614 413.706 344.985 L 413.706 344.985 L 413.706 344.985 Q 421.148 352.356 421.148 365.554 L 421.148 365.554 L 421.148 365.554 Q 421.148 381.7 411.32 390.475 L 411.32 390.475 L 411.32 390.475 Q 401.492 399.25 383.24 399.25 L 383.24 399.25 L 383.24 399.25 Q 372.429 399.25 362.32 396.723 L 362.32 396.723 L 362.32 396.723 Q 358.95 395.88 356.844 392.932 L 356.844 392.932 L 356.844 392.932 Q 354.738 389.984 354.738 386.333 L 354.738 386.333 L 354.738 384.789 L 354.738 384.789 Q 354.738 381.981 357.055 380.366 L 357.055 380.366 L 357.055 380.366 Q 359.372 378.752 362.18 379.594 L 362.18 379.594 L 362.18 379.594 Q 373.552 383.385 382.397 383.385 L 382.397 383.385 L 382.397 383.385 Q 391.664 383.385 396.718 378.892 L 396.718 378.892 L 396.718 378.892 Q 401.772 374.399 401.772 365.835 L 401.772 365.835 L 401.772 365.835 Q 401.772 357.972 396.086 354.533 L 396.086 354.533 L 396.086 354.533 Q 390.4 351.093 376.079 351.093 L 376.079 351.093 L 374.535 351.093 L 374.535 351.093 Q 371.727 351.093 369.691 348.987 L 369.691 348.987 L 369.691 348.987 Q 367.655 346.881 367.655 344.073 L 367.655 344.073 L 367.655 344.073 Q 367.655 337.053 372.71 332.42 L 372.71 332.42 L 395.595 311.64 L 395.595 311.64 Q 395.735 311.5 395.735 311.36 L 395.735 311.36 L 395.735 311.36 Q 395.735 311.219 395.595 311.219 L 395.595 311.219 Z " fill-rule="evenodd" fill="rgb(0,0,0)"/></g></svg>